<?xml version="1.0" standalone="no"?>
<!DOCTYPE svg PUBLIC "-//W3C//DTD SVG 20010904//EN"
 "http://www.w3.org/TR/2001/REC-SVG-20010904/DTD/svg10.dtd">
<svg version="1.0" xmlns="http://www.w3.org/2000/svg"
 width="716.000000pt" height="348.000000pt" viewBox="0 0 716.000000 348.000000"
 preserveAspectRatio="xMidYMid meet">

<g transform="translate(0.000000,348.000000) scale(0.100000,-0.100000)"
fill="#000000" stroke="none">
<path d="M62 3318 l3 -23 605 -2 c333 -1 727 0 877 4 261 6 272 7 262 24 -9
18 -42 19 -880 19 l-870 0 3 -22z"/>
<path d="M1930 3325 c-24 -13 -24 -14 -5 -22 11 -4 1172 -8 2580 -8 l2560 0 3
23 3 22 -2558 0 c-2167 -1 -2562 -3 -2583 -15z"/>
<path d="M2950 3241 c-90 -28 -187 -110 -311 -262 -137 -169 -759 -792 -775
-776 -18 18 42 389 103 637 25 102 47 219 50 262 5 72 4 78 -20 102 -23 22
-35 26 -89 26 -140 0 -249 -89 -511 -415 -89 -110 -242 -287 -342 -394 -376
-404 -487 -557 -447 -617 38 -58 188 -40 268 33 33 29 143 162 184 223 14 19
99 118 190 220 91 102 199 225 240 274 134 159 139 164 140 139 0 -12 -7 -50
-15 -85 -21 -91 -72 -432 -85 -575 -20 -206 -5 -238 114 -238 57 1 81 6 123
28 69 36 204 150 329 278 223 230 634 633 639 628 3 -3 -20 -104 -50 -225 -65
-259 -125 -564 -125 -639 0 -43 5 -60 24 -82 22 -25 30 -28 89 -27 48 0 78 7
118 27 84 41 89 55 113 295 8 79 16 145 18 147 2 1 47 5 102 7 88 4 101 6 117
27 23 28 23 35 3 55 -10 11 -34 16 -74 16 l-58 0 13 38 c8 20 25 73 38 117 14
44 40 119 57 167 l32 88 68 -6 c61 -6 70 -4 89 15 30 30 24 62 -14 73 -16 4
-75 11 -131 14 l-100 7 28 96 c52 174 48 265 -13 296 -30 16 -88 18 -129 6z
m-1023 -483 c-3 -8 -6 -5 -6 6 -1 11 2 17 5 13 3 -3 4 -12 1 -19z m-304 -11
c-18 -30 -86 -112 -318 -378 -137 -158 -266 -309 -285 -335 -38 -52 -93 -119
-143 -173 -66 -71 -209 -101 -249 -51 -24 29 -18 46 45 140 61 91 157 205 312
370 65 69 156 167 203 217 73 80 87 91 101 80 14 -11 15 -10 1 7 -13 17 -12
20 12 41 15 13 25 25 24 26 -2 2 12 20 31 39 18 19 31 27 28 18 -4 -9 -13 -19
-21 -22 -8 -3 -11 -12 -7 -22 5 -13 3 -15 -8 -9 -8 4 -11 5 -7 0 4 -4 2 -15
-5 -23 -10 -13 -9 -14 10 -4 12 7 25 17 28 22 3 6 15 10 26 10 11 0 22 7 25
15 8 20 58 19 79 -2 16 -16 18 -15 35 7 19 25 45 19 36 -9 -4 -9 5 -3 19 12
14 16 22 33 19 39 -4 7 -2 8 5 4 6 -4 8 -13 4 -19z m68 14 c-8 -5 -10 -14 -6
-21 6 -9 4 -11 -5 -5 -8 5 -11 3 -8 -5 3 -10 35 -14 113 -17 96 -3 111 -2 124
14 12 17 13 16 7 -7 -30 -119 -83 -531 -70 -551 6 -11 118 90 384 349 123 119
188 176 193 168 6 -7 7 -5 4 6 -3 9 1 22 9 28 11 10 14 9 14 -4 0 -14 3 -15
23 -4 12 7 49 11 84 9 55 -2 62 0 68 19 5 16 10 19 18 11 7 -7 5 -16 -8 -31
-20 -22 -14 -26 16 -10 11 6 19 7 19 1 0 -14 -745 -751 -820 -812 -81 -65
-135 -89 -202 -91 -107 -3 -121 27 -102 217 24 236 51 413 99 634 18 83 30
111 48 111 8 0 8 -3 -2 -9z m-261 -6 c0 -2 -10 -9 -22 -15 -22 -11 -22 -10 -4
4 21 17 26 19 26 11z m1280 -15 c0 -5 -5 -10 -11 -10 -5 0 -7 5 -4 10 3 6 8
10 11 10 2 0 4 -4 4 -10z m224 -48 c32 -10 41 -10 48 0 12 20 10 38 -5 32 -7
-2 -21 3 -32 11 -20 16 -20 16 1 6 12 -6 31 -8 44 -6 17 3 20 1 15 -13 -7 -18
-67 -278 -81 -352 l-9 -45 -54 -5 c-40 -4 -58 -12 -72 -29 -43 -52 -14 -87 62
-77 l51 7 -6 -48 c-3 -26 -10 -101 -16 -165 -11 -128 -18 -154 -47 -180 -61
-55 -194 -77 -233 -38 -38 38 -38 51 14 325 13 72 45 213 71 315 26 102 55
213 63 248 13 52 19 62 37 61 16 -1 17 -2 3 -6 -10 -2 -18 -8 -18 -13 0 -5 -3
-15 -6 -24 -3 -9 -1 -16 5 -16 7 0 15 8 18 18 6 17 22 32 34 32 3 0 5 -10 5
-22 -1 -14 6 -24 17 -26 11 -2 17 3 17 16 0 11 3 28 6 37 6 14 8 13 18 -7 7
-13 28 -29 50 -36z m125 46 c0 -17 -68 -186 -68 -173 -1 15 26 126 38 158 11
27 32 38 30 15z m17 -149 c-13 -41 -36 -113 -50 -162 -15 -48 -29 -94 -32
-102 -5 -11 8 -15 67 -17 75 -3 92 -14 65 -40 -10 -11 -50 -17 -143 -21 -70
-4 -137 -9 -148 -12 -11 -3 -27 -1 -35 5 -26 16 17 49 75 56 28 4 53 12 57 18
4 6 28 72 52 146 25 74 52 151 60 170 14 32 15 33 16 10 l1 -25 15 28 c26 48
26 23 0 -54z"/>
<path d="M1550 2690 c0 -5 5 -10 11 -10 5 0 7 5 4 10 -3 6 -8 10 -11 10 -2 0
-4 -4 -4 -10z"/>
<path d="M1500 2650 c0 -5 5 -10 11 -10 5 0 7 5 4 10 -3 6 -8 10 -11 10 -2 0
-4 -4 -4 -10z"/>
<path d="M1671 2695 c0 -5 3 -16 8 -23 7 -11 9 -10 14 3 4 9 3 14 -2 10 -5 -3
-12 1 -14 7 -3 7 -6 9 -6 3z"/>
<path d="M2530 2680 c0 -5 9 -10 21 -10 11 0 17 5 14 10 -3 6 -13 10 -21 10
-8 0 -14 -4 -14 -10z"/>
<path d="M2585 2660 c-3 -5 1 -10 9 -10 9 0 16 5 16 10 0 6 -4 10 -9 10 -6 0
-13 -4 -16 -10z"/>
<path d="M4018 2874 c-3 -3 -34 -5 -68 -6 -78 -1 -91 -13 -114 -103 -15 -60
-47 -149 -76 -210 -28 -57 -80 -242 -80 -280 0 -69 24 -80 175 -80 141 0 168
6 183 40 23 51 10 57 -117 55 -164 -4 -155 -6 -147 33 13 66 49 167 60 167 76
3 289 30 300 39 41 34 15 87 -37 77 -58 -12 -227 -19 -227 -10 1 31 60 168 76
177 17 10 181 13 258 5 21 -2 33 4 48 22 40 54 -8 80 -148 80 -44 0 -83 -2
-86 -6z m-181 -216 c-1 -14 3 -22 11 -20 9 1 11 -6 6 -25 -10 -41 -10 -41 -1
-43 9 -3 187 9 238 16 44 6 57 -8 31 -34 -15 -15 -47 -21 -160 -32 -78 -7
-146 -18 -150 -24 -13 -16 -62 -172 -62 -195 0 -28 23 -33 155 -30 103 2 120
0 123 -13 2 -9 -7 -23 -20 -32 -28 -20 -242 -23 -284 -4 -26 12 -26 14 -21 78
3 41 19 103 45 170 57 150 64 163 75 148 6 -9 7 -5 4 10 -5 22 0 52 9 52 2 0
3 -10 1 -22z"/>
<path d="M3428 2843 c-8 -10 -34 -74 -58 -143 -23 -69 -68 -195 -101 -281 -59
-158 -69 -202 -47 -215 30 -19 212 0 311 32 56 19 77 37 77 69 0 34 -23 37
-103 15 -100 -28 -202 -38 -195 -19 3 8 24 61 46 119 90 234 145 403 135 419
-14 23 -47 25 -65 4z m-18 -183 c0 7 3 11 6 8 8 -9 -59 -213 -105 -321 -33
-77 -31 -81 42 -73 34 3 100 15 146 26 90 22 113 17 84 -18 -24 -29 -164 -63
-268 -65 -79 -2 -80 -2 -83 24 -2 15 15 73 37 130 22 57 56 145 75 194 20 50
35 81 36 70 0 -16 2 -17 9 -6 6 9 6 23 0 35 -10 21 -10 21 5 2 11 -13 16 -15
16 -6z"/>
<path d="M4351 2843 c-14 -13 -33 -62 -61 -158 -21 -77 -60 -198 -85 -270 -65
-182 -65 -181 -51 -200 18 -24 47 -15 72 23 12 17 50 120 85 227 34 107 66
195 69 195 4 0 29 -52 55 -115 55 -133 135 -280 171 -312 31 -28 61 -19 87 26
26 43 133 366 153 461 18 83 14 124 -12 134 -23 9 -63 -19 -68 -47 -3 -12 -11
-59 -20 -104 -8 -45 -34 -141 -57 -214 l-41 -132 -19 24 c-38 50 -119 219
-159 334 -24 66 -47 126 -53 133 -13 17 -41 15 -66 -5z m96 -213 c7 0 13 8 13
18 0 9 23 -30 51 -88 51 -106 125 -230 139 -230 3 0 28 65 54 145 26 80 52
145 59 145 9 0 9 2 1 8 -7 4 -8 15 -3 27 l8 20 0 -20 c1 -17 3 -17 11 -5 9 13
10 13 10 0 0 -13 1 -13 10 0 18 28 10 -3 -41 -164 -93 -294 -111 -309 -192
-168 -61 105 -93 173 -128 266 -29 81 -37 110 -17 69 6 -13 17 -23 25 -23z
m-102 19 c2 -3 -11 -52 -29 -110 -19 -57 -46 -141 -60 -187 -14 -45 -33 -93
-42 -107 -16 -25 -54 -35 -54 -14 0 6 22 70 49 142 27 73 58 163 70 200 11 38
23 72 26 77 5 9 31 8 40 -1z"/>
<path d="M4310 2639 c0 -15 18 -19 23 -6 3 8 -1 14 -9 14 -8 0 -14 -4 -14 -8z"/>
<path d="M6420 2847 c-15 -8 -52 -59 -94 -132 -38 -66 -94 -158 -125 -205
l-56 -85 -3 53 c-2 29 4 100 12 158 29 190 20 235 -40 204 -29 -16 -63 -68
-137 -210 -30 -58 -73 -136 -95 -172 -107 -174 -126 -243 -67 -243 35 0 39 6
150 214 44 82 83 147 87 144 5 -2 6 -8 4 -11 -9 -14 -28 -293 -22 -317 5 -19
13 -25 35 -25 36 0 56 24 175 210 48 74 94 142 102 150 13 13 14 11 9 -15 -17
-102 -35 -251 -35 -299 0 -65 16 -79 59 -55 30 17 33 32 51 233 6 71 20 172
31 224 24 121 25 168 1 181 -12 7 -26 6 -42 -2z m-283 -179 c-3 -8 -6 -5 -6 6
-1 11 2 17 5 13 3 -3 4 -12 1 -19z m294 -44 c-5 -27 -14 -112 -21 -189 -16
-190 -17 -198 -39 -212 -15 -10 -22 -9 -31 2 -14 16 -1 147 31 313 10 57 16
109 13 114 -4 7 -2 8 4 4 7 -4 12 -16 12 -26 0 -10 5 -22 12 -26 6 -4 8 -3 5
3 -6 9 13 76 20 69 2 -1 -1 -25 -6 -52z m-91 26 c9 -17 -6 -45 -95 -187 -163
-258 -195 -286 -195 -165 0 62 11 189 26 304 5 40 4 47 -12 51 -12 3 -13 5 -4
6 8 0 28 -11 43 -24 l28 -25 -9 -113 c-6 -61 -6 -116 -2 -121 5 -4 45 47 90
115 50 76 88 123 97 122 10 -1 12 2 5 9 -7 7 -7 16 1 29 15 23 14 23 27 -1z
m-310 -5 c5 3 12 0 16 -6 5 -8 3 -9 -6 -4 -10 6 -12 4 -7 -9 5 -12 -9 -48 -40
-104 -26 -48 -72 -134 -102 -192 -43 -80 -61 -105 -76 -105 -41 0 -12 72 114
279 38 62 72 124 76 137 5 13 10 18 12 11 3 -6 9 -10 13 -7z"/>
<path d="M6326 2637 c3 -10 9 -15 12 -12 3 3 0 11 -7 18 -10 9 -11 8 -5 -6z"/>
<path d="M4960 2828 c-28 -15 -40 -66 -18 -79 7 -5 34 -9 60 -9 l47 0 -26 -67
c-27 -70 -56 -156 -93 -278 -12 -38 -27 -73 -33 -77 -7 -4 -30 -8 -53 -8 -50
0 -90 -35 -79 -70 6 -20 10 -21 163 -14 127 5 162 9 182 24 57 40 29 80 -58
80 -47 0 -53 2 -47 18 3 9 19 60 35 112 15 52 43 136 62 185 l34 90 73 0 c67
0 75 2 93 25 23 32 16 56 -20 64 -15 3 -88 8 -162 12 -103 4 -141 2 -160 -8z
m115 -180 c5 4 6 0 2 -9 -13 -38 -90 -286 -94 -306 -5 -22 -3 -23 66 -23 63 0
71 -2 71 -19 0 -32 -21 -38 -150 -45 -69 -3 -137 -9 -152 -12 -21 -5 -29 -2
-34 11 -10 26 17 45 75 52 61 7 68 17 101 134 33 122 80 231 95 219 6 -5 16
-6 20 -2z"/>
<path d="M5418 2823 c-22 -25 -31 -46 -66 -148 -116 -342 -92 -456 99 -458
165 -1 299 170 404 516 26 85 24 107 -10 107 -34 0 -51 -27 -94 -150 -95 -276
-177 -390 -279 -390 -57 0 -78 12 -92 56 -16 49 -7 101 51 284 27 85 48 164
47 175 -4 26 -40 31 -60 8z m358 -162 c-4 -5 -2 -20 3 -33 8 -19 10 -20 10 -4
1 11 4 17 7 13 3 -3 -4 -32 -16 -64 -99 -265 -266 -395 -416 -323 -55 27 -68
59 -62 153 5 79 46 219 61 210 5 -3 6 4 2 16 -4 12 -2 21 4 21 6 0 11 -5 11
-11 0 -8 6 -7 17 2 15 12 16 12 9 -6 -16 -42 -56 -208 -56 -231 0 -42 27 -92
59 -108 104 -54 229 46 309 249 37 91 52 125 58 125 3 0 3 -4 0 -9z"/>
<path d="M3078 1850 c-67 -25 -194 -122 -493 -374 -55 -47 -103 -82 -107 -78
-4 4 -46 86 -94 182 -90 180 -122 229 -171 261 -53 35 -134 21 -190 -33 -61
-59 -66 -109 -17 -168 26 -30 224 -411 224 -430 0 -12 -149 -126 -443 -339
-131 -95 -244 -182 -252 -194 -41 -64 -21 -128 45 -148 33 -10 47 -9 84 5 39
15 396 267 593 419 34 26 65 47 70 47 10 0 9 2 91 -212 65 -169 105 -239 154
-264 87 -45 228 46 228 147 0 22 7 42 17 50 14 12 78 138 162 323 l22 48 147
-6 c113 -5 153 -4 172 6 34 18 38 46 8 57 -13 5 -168 10 -344 12 -333 4 -354
2 -354 -37 0 -23 46 -34 146 -34 69 0 94 -3 94 -12 -1 -22 -114 -261 -126
-265 -15 -5 -170 354 -162 376 1 5 59 55 128 112 69 57 157 130 195 164 39 33
120 100 181 148 115 91 134 115 134 171 0 64 -66 95 -142 66z m-850 -44 c38
-36 66 -82 145 -240 54 -108 102 -196 106 -196 3 0 89 70 189 155 323 273 417
335 482 319 24 -6 39 -18 49 -38 23 -48 -3 -82 -152 -203 -225 -182 -487 -404
-487 -413 0 -5 9 -32 20 -61 11 -28 18 -61 15 -73 -5 -15 -4 -17 3 -8 7 11 12
6 21 -19 9 -27 8 -35 -5 -51 -10 -10 -22 -18 -28 -18 -6 0 0 9 13 19 20 15 22
21 12 37 -11 18 -12 18 -6 -3 8 -28 -18 -37 -89 -28 -46 6 -55 4 -64 -11 -11
-18 -12 -18 -27 4 -18 24 -50 30 -58 10 -4 -8 -6 -7 -6 3 -2 27 -28 44 -46 29
-12 -10 -18 -10 -30 0 -13 10 -18 11 -28 1 -9 -10 -8 -11 8 -5 17 7 18 5 8 -8
-7 -8 -12 -17 -10 -19 1 -2 0 -3 -2 -2 -2 2 -10 -5 -18 -15 -8 -9 -12 -11 -8
-4 4 7 0 12 -10 12 -9 0 -19 9 -22 19 -5 21 -4 21 -64 -10 -15 -7 -24 -7 -34
1 -8 6 -22 10 -32 8 -10 -1 -24 1 -32 6 -8 5 -16 4 -22 -5 -4 -8 -4 -16 2 -20
7 -4 4 -9 -6 -12 -9 -4 -13 -3 -10 3 10 16 -10 11 -31 -7 -11 -10 -26 -19 -34
-21 -8 -2 -23 -11 -32 -19 -10 -9 -18 -13 -18 -10 0 3 37 34 83 68 96 73 128
97 219 168 l67 52 -106 207 c-58 114 -118 223 -134 243 -18 22 -29 49 -29 67
0 39 42 89 95 113 64 29 90 25 143 -25z m811 -660 c165 -3 288 -9 293 -14 7
-7 2 -14 -13 -23 -17 -9 -63 -10 -169 -6 -81 3 -151 2 -156 -1 -5 -4 -37 -64
-72 -134 -34 -70 -68 -130 -74 -134 -8 -5 -9 -2 -5 10 5 12 2 16 -11 14 -9 -2
-20 -7 -24 -13 -14 -19 -17 2 -4 27 8 14 23 52 35 83 12 31 30 74 42 96 11 23
19 42 17 44 -2 1 -57 6 -122 11 -77 6 -121 13 -123 21 -5 13 50 31 82 27 11
-2 148 -5 304 -8z m-655 -192 c3 -8 2 -12 -4 -9 -6 3 -10 10 -10 16 0 14 7 11
14 -7z m-204 -29 c-7 -8 -17 -15 -22 -15 -11 0 14 29 26 30 5 0 3 -7 -4 -15z"/>
<path d="M2100 1059 c0 -5 -4 -7 -10 -4 -14 9 -12 -1 3 -13 10 -8 13 -6 14 9
1 10 0 19 -3 19 -2 0 -4 -5 -4 -11z"/>
<path d="M2368 1023 c7 -3 16 -2 19 1 4 3 -2 6 -13 5 -11 0 -14 -3 -6 -6z"/>
<path d="M2110 1010 c0 -5 5 -10 11 -10 5 0 7 5 4 10 -3 6 -8 10 -11 10 -2 0
-4 -4 -4 -10z"/>
<path d="M4285 1190 c-33 -5 -75 -7 -94 -4 -59 10 -88 -11 -126 -90 -19 -39
-52 -95 -75 -124 -60 -78 -130 -204 -136 -244 -6 -32 -3 -38 22 -55 25 -16 50
-18 229 -18 177 0 204 2 229 18 16 11 26 25 24 35 -3 15 -24 17 -183 20 -99 1
-186 4 -193 7 -10 4 -5 20 18 62 52 98 34 90 235 98 190 7 245 16 265 41 11
12 10 18 -3 31 -14 14 -35 15 -185 7 -94 -5 -177 -8 -185 -6 -12 2 -6 18 26
70 22 37 41 68 42 69 0 1 43 6 95 12 64 6 132 6 207 -1 99 -9 116 -9 138 6 33
21 32 44 -2 57 -37 15 -272 20 -348 9z m348 -26 c17 -10 17 -12 2 -24 -18 -15
-36 -16 -170 -5 -125 9 -275 -7 -290 -31 -5 -10 -29 -46 -53 -82 -23 -36 -39
-69 -35 -73 5 -4 62 -3 128 1 66 5 156 9 200 9 74 1 78 0 62 -16 -16 -17 -124
-27 -350 -34 -51 -2 -82 -8 -89 -16 -9 -11 -13 -12 -21 -1 -7 10 -8 9 -4 -3 3
-9 -3 -29 -14 -45 -21 -32 -26 -26 -8 9 9 18 9 20 -1 10 -7 -6 -19 -9 -28 -6
-9 4 -13 2 -9 -4 3 -5 0 -10 -8 -10 -17 0 -15 6 75 144 39 59 70 112 70 119 0
6 10 24 22 39 18 24 26 27 62 22 23 -2 64 -1 91 3 70 12 346 7 368 -6z"/>
<path d="M5930 1190 c-36 -5 -82 -7 -103 -4 -52 8 -80 -13 -116 -88 -17 -35
-47 -85 -68 -113 -47 -62 -117 -177 -138 -228 -36 -87 -1 -102 245 -102 102 0
197 3 212 8 27 7 45 38 33 57 -4 6 -77 10 -191 10 -117 0 -184 4 -184 10 0 18
39 94 63 122 22 26 22 26 222 35 208 10 245 18 245 56 0 10 -7 20 -15 24 -9 3
-97 2 -195 -3 -99 -5 -180 -5 -180 -1 0 5 14 28 30 52 17 24 30 48 30 53 0 21
29 31 119 41 65 7 126 7 201 0 87 -9 114 -8 136 3 39 18 41 41 7 57 -35 16
-264 23 -353 11z m351 -27 c8 -8 5 -15 -14 -27 -21 -14 -34 -15 -88 -6 -109
17 -349 5 -357 -19 -2 -5 -24 -41 -49 -81 -25 -39 -42 -75 -37 -79 5 -5 63 -5
129 0 66 4 156 8 200 8 73 1 78 0 63 -15 -16 -17 -151 -30 -361 -35 l-78 -2
-29 -41 c-17 -22 -30 -34 -30 -27 0 7 -4 9 -10 6 -5 -3 -10 0 -10 7 0 8 -5 6
-11 -5 -6 -9 -15 -15 -20 -12 -5 4 -1 19 11 35 11 15 20 30 20 33 0 3 27 44
59 92 33 48 63 100 66 116 9 41 46 63 93 56 20 -3 57 -1 82 3 65 12 357 7 371
-7z"/>
<path d="M3436 1165 c-44 -15 -48 -20 -81 -92 -13 -29 -48 -85 -77 -125 -69
-93 -140 -225 -136 -252 4 -25 38 -32 78 -16 20 8 39 32 64 80 l36 69 71 -20
c82 -23 136 -48 200 -95 26 -19 59 -34 73 -34 31 0 76 27 76 45 0 18 -53 61
-113 92 -38 19 -47 27 -36 34 8 5 21 9 29 9 8 0 48 12 89 27 171 62 199 161
68 238 -74 43 -269 66 -341 40z m290 -34 c124 -55 148 -111 74 -174 -36 -30
-165 -80 -235 -90 -11 -1 -26 -7 -34 -11 -9 -6 -18 -4 -25 5 -13 18 -47 13
-40 -5 3 -8 -2 -16 -11 -20 -10 -3 -14 -2 -9 5 4 6 -1 9 -12 8 -11 -2 -34 4
-52 13 -23 12 -40 14 -55 8 -19 -7 -16 -9 21 -15 23 -4 45 -12 49 -18 4 -6 0
-8 -10 -4 -8 3 -31 9 -49 12 -29 6 -36 3 -46 -17 -10 -21 -11 -21 -6 8 7 36
-15 43 -37 11 -35 -49 -38 -47 -10 5 17 32 48 82 70 110 22 29 50 78 64 109
38 86 50 92 188 86 89 -4 128 -10 165 -26z"/>
<path d="M3456 1072 c-13 -26 -44 -75 -69 -109 -25 -33 -43 -64 -40 -67 12
-12 169 -6 237 9 85 18 160 54 164 78 2 10 1 29 -2 42 -9 35 -113 82 -199 89
l-67 5 -24 -47z m202 2 c107 -44 96 -103 -25 -140 -51 -16 -253 -32 -253 -20
0 4 18 34 41 67 22 33 45 74 51 91 l11 31 69 -7 c38 -3 86 -13 106 -22z"/>
<path d="M5377 1170 c-16 -5 -72 -51 -125 -102 -54 -51 -135 -127 -182 -168
-81 -71 -85 -73 -88 -49 -2 14 7 68 19 120 12 52 23 117 23 144 1 49 0 50 -31
53 -47 5 -82 -18 -169 -110 -44 -45 -117 -119 -163 -163 -102 -98 -171 -180
-171 -206 0 -25 39 -34 77 -17 17 7 92 77 167 155 75 78 136 137 136 130 0 -7
-7 -63 -16 -124 -20 -137 -15 -163 27 -163 44 0 96 30 174 102 99 90 234 208
240 208 2 0 -3 -21 -11 -47 -8 -27 -24 -92 -35 -146 -23 -111 -19 -127 36
-127 54 0 75 25 85 105 13 95 27 154 61 263 34 107 34 115 13 136 -17 18 -26
18 -67 6z m-363 -26 c3 -9 -7 -73 -24 -144 -16 -70 -30 -136 -30 -146 -1 -18
-1 -18 -14 -1 -9 12 -16 14 -21 7 -3 -5 -11 -8 -16 -5 -5 4 -9 0 -10 -7 0 -7
-4 -4 -9 7 -7 17 -9 16 -10 -10 -1 -16 -4 -25 -7 -18 -2 7 3 49 12 94 9 44 14
83 11 87 -4 3 -47 -34 -96 -83 -70 -70 -92 -87 -102 -77 -15 15 -31 16 -22 0
5 -7 2 -9 -9 -5 -9 3 -18 1 -21 -6 -2 -7 -5 -7 -5 -2 0 6 62 74 137 153 102
106 147 146 177 157 51 18 52 18 59 -1z m424 -12 c2 -12 -6 -48 -18 -79 -11
-31 -32 -99 -46 -151 -25 -97 -39 -134 -28 -71 6 32 6 33 -9 14 -16 -20 -16
-19 -11 5 5 20 3 22 -5 10 -6 -8 -11 -11 -11 -6 0 6 -7 1 -16 -10 -15 -18 -15
-18 -11 6 3 14 13 55 22 93 10 37 15 70 12 73 -3 4 -50 -32 -104 -79 -79 -68
-102 -83 -118 -77 -19 7 -49 -11 -39 -24 2 -3 1 -4 -3 -1 -3 3 -13 -1 -22 -7
-9 -7 58 60 148 148 90 87 173 165 185 171 33 20 70 12 74 -15z m-748 -316 c0
-2 -8 -10 -17 -17 -16 -13 -17 -12 -4 4 13 16 21 21 21 13z"/>
<path d="M4723 883 c4 -3 1 -13 -6 -22 -11 -14 -10 -14 5 -2 16 12 16 31 1 31
-4 0 -3 -3 0 -7z"/>
<path d="M60 451 c0 -10 6 -21 13 -24 17 -7 6737 -6 6885 0 101 5 112 7 112
24 0 19 -75 19 -3505 19 -3432 0 -3505 0 -3505 -19z"/>
<path d="M2645 390 c-132 -13 -206 -46 -231 -106 -18 -43 -11 -69 29 -111 51
-54 109 -68 287 -68 142 0 159 2 208 24 180 81 112 238 -113 257 -33 3 -71 6
-85 8 -14 1 -56 -1 -95 -4z m163 -81 c52 -19 53 -100 2 -127 -38 -20 -163 -12
-189 12 -41 37 -21 109 32 121 12 2 31 6 42 8 23 5 80 -2 113 -14z"/>
<path d="M5250 390 c-101 -10 -154 -27 -196 -64 -72 -63 -51 -142 53 -192 57
-28 62 -29 223 -29 130 0 179 4 233 19 l67 18 0 64 0 64 -145 0 -145 0 0 -30
c0 -30 0 -30 59 -30 53 0 83 -12 68 -26 -3 -3 -36 -10 -74 -15 -128 -17 -206
23 -187 96 9 37 41 54 111 61 46 5 68 3 96 -11 31 -14 52 -16 122 -10 47 4 85
11 85 16 0 13 -59 48 -100 58 -54 14 -187 19 -270 11z"/>
<path d="M5948 389 c-129 -13 -228 -72 -228 -135 0 -99 115 -154 321 -154 177
0 284 40 309 115 24 73 -42 142 -155 164 -76 15 -162 18 -247 10z m180 -80
c53 -20 46 -109 -10 -128 -45 -16 -134 -13 -168 4 -36 19 -49 59 -29 94 25 44
128 59 207 30z"/>
<path d="M6605 390 c-97 -14 -155 -43 -155 -80 0 -41 71 -71 213 -90 112 -14
127 -18 127 -34 0 -33 -123 -37 -163 -6 -21 16 -40 20 -111 20 -91 0 -106 -9
-68 -42 53 -47 80 -53 252 -53 152 0 169 2 211 23 90 45 86 104 -9 134 -28 9
-97 22 -154 29 -107 12 -134 22 -108 40 21 14 109 3 130 -16 14 -13 32 -14 99
-9 44 4 81 10 81 15 0 14 -53 49 -89 58 -56 14 -190 20 -256 11z"/>
<path d="M101 383 c0 -4 51 -69 113 -143 l112 -135 100 -3 100 -3 112 140 c62
77 112 142 112 145 0 3 -42 6 -93 6 l-92 0 -63 -95 c-35 -52 -66 -97 -70 -99
-4 -2 -37 39 -73 93 l-66 96 -97 3 c-53 1 -96 -1 -95 -5z"/>
<path d="M822 248 l3 -143 95 0 95 0 0 140 0 140 -98 3 -98 3 3 -143z"/>
<path d="M1150 244 l0 -146 208 4 c197 4 210 5 264 30 31 14 64 38 73 52 22
34 23 87 2 120 -44 67 -125 86 -364 86 l-183 0 0 -146z m340 63 c26 -13 36
-50 26 -92 -7 -29 -51 -45 -122 -45 l-54 0 0 75 0 75 63 0 c34 0 73 -6 87 -13z"/>
<path d="M1812 248 l3 -143 255 0 255 0 3 32 3 32 -163 3 c-160 3 -163 3 -166
25 -3 22 -2 22 145 25 l148 3 0 30 0 30 -148 3 c-134 2 -148 4 -145 20 3 15
20 17 143 19 77 1 148 2 158 3 12 0 17 8 17 30 l0 30 -255 0 -256 0 3 -142z"/>
<path d="M3390 292 c0 -63 -4 -102 -12 -110 -20 -20 -86 -15 -98 8 -12 22 -43
25 -137 14 l-53 -7 17 -28 c28 -46 103 -69 227 -69 121 0 196 19 225 57 18 22
21 40 21 129 l0 104 -95 0 -95 0 0 -98z"/>
<path d="M3710 291 c0 -83 3 -102 20 -123 36 -46 91 -61 246 -66 162 -5 233 9
287 58 31 28 32 30 35 130 l4 101 -99 -3 -98 -3 0 -92 c0 -62 -4 -96 -13 -105
-18 -18 -153 -18 -175 1 -14 11 -17 32 -17 107 l0 94 -95 0 -95 0 0 -99z"/>
<path d="M4420 245 l0 -145 258 2 257 3 3 33 3 32 -165 0 -166 0 0 25 0 25
145 0 145 0 0 35 0 35 -146 0 c-133 0 -145 1 -142 18 4 19 4 19 201 21 l117 1
0 30 0 30 -255 0 -255 0 0 -145z"/>
</g>
</svg>
